<svg width="1135" height="84" viewBox="0 0 1135 84" fill="none" xmlns="http://www.w3.org/2000/svg">
<rect y="42" width="42" height="42" fill="#FD0C17" fill-opacity="0.4"/>
<rect x="84" y="42" width="42" height="42" fill="#FD0C17" fill-opacity="0.4"/>
<rect x="168" y="42" width="42" height="42" fill="#FD0C17" fill-opacity="0.4"/>
<rect x="252" y="42" width="42" height="42" fill="#FD0C17" fill-opacity="0.4"/>
<rect x="336" y="42" width="42" height="42" fill="#FD0C17" fill-opacity="0.4"/>
<rect x="420" y="42" width="42" height="42" fill="#FD0C17" fill-opacity="0.4"/>
<rect x="504" y="42" width="42" height="42" fill="#FD0C17" fill-opacity="0.4"/>
<rect x="588" y="42" width="42" height="42" fill="#FD0C17" fill-opacity="0.4"/>
<rect x="672" y="42" width="42" height="42" fill="#FD0C17" fill-opacity="0.4"/>
<rect x="756" y="42" width="42" height="42" fill="#FD0C17" fill-opacity="0.4"/>
<rect x="840" y="42" width="42" height="42" fill="#FD0C17" fill-opacity="0.4"/>
<rect x="924" y="42" width="42" height="42" fill="#FD0C17" fill-opacity="0.4"/>
<rect x="1008" y="42" width="42" height="42" fill="#FD0C17" fill-opacity="0.4"/>
<rect x="1092" y="42" width="42" height="42" fill="#FD0C17" fill-opacity="0.4"/>
<rect x="41.4656" width="42" height="42" fill="#FD0C17" fill-opacity="0.4"/>
<rect x="125.466" width="42" height="42" fill="#FD0C17" fill-opacity="0.4"/>
<rect x="209.466" width="42" height="42" fill="#FD0C17" fill-opacity="0.4"/>
<rect x="293.466" width="42" height="42" fill="#FD0C17" fill-opacity="0.4"/>
<rect x="377.466" width="42" height="42" fill="#FD0C17" fill-opacity="0.4"/>
<rect x="461.466" width="42" height="42" fill="#FD0C17" fill-opacity="0.4"/>
<rect x="545.466" width="42" height="42" fill="#FD0C17" fill-opacity="0.4"/>
<rect x="629.466" width="42" height="42" fill="#FD0C17" fill-opacity="0.4"/>
<rect x="713.466" width="42" height="42" fill="#FD0C17" fill-opacity="0.4"/>
<rect x="797.466" width="42" height="42" fill="#FD0C17" fill-opacity="0.4"/>
<rect x="881.466" width="42" height="42" fill="#FD0C17" fill-opacity="0.4"/>
<rect x="965.466" width="42" height="42" fill="#FD0C17" fill-opacity="0.4"/>
<rect x="1049.47" width="42" height="42" fill="#FD0C17" fill-opacity="0.4"/>
<rect x="1133.47" width="42" height="42" fill="#FD0C17" fill-opacity="0.4"/>
</svg>
