<svg width="60" height="60" viewBox="0 0 60 60" fill="none" xmlns="http://www.w3.org/2000/svg">
<path d="M10.65 10.65C7.5 13.83 7.5 18.915 7.5 29.1V30.9C7.5 41.07 7.5 46.155 10.65 49.35C13.83 52.5 18.915 52.5 29.1 52.5H30.9C41.07 52.5 46.155 52.5 49.35 49.35C52.5 46.17 52.5 41.085 52.5 30.9V29.1C52.5 18.93 52.5 13.845 49.35 10.65C46.17 7.5 41.085 7.5 30.9 7.5H29.1C18.93 7.5 13.845 7.5 10.65 10.65ZM15.09 21.195H20.25C20.415 29.775 24.195 33.405 27.195 34.155V21.195H32.04V28.59C34.995 28.275 38.115 24.9 39.165 21.18H43.995C43.6013 23.1057 42.8147 24.9295 41.6842 26.5374C40.5538 28.1453 39.1038 29.5028 37.425 30.525C39.2986 31.4572 40.9532 32.7761 42.2796 34.3947C43.606 36.0133 44.5741 37.8948 45.12 39.915H39.795C38.655 36.36 35.805 33.6 32.04 33.225V39.915H31.44C21.18 39.915 15.33 32.895 15.09 21.195Z" fill="white"/>
</svg>
