<svg width="60" height="60" viewBox="0 0 60 60" fill="none" xmlns="http://www.w3.org/2000/svg">
<g clip-path="url(#clip0_196_18)">
<path fill-rule="evenodd" clip-rule="evenodd" d="M30 10C32.1375 10 34.33 10.055 36.455 10.145L38.965 10.265L41.3675 10.4075L43.6175 10.56L45.6725 10.72C47.9026 10.8907 50.0011 11.8424 51.5988 13.4076C53.1965 14.9728 54.1911 17.0513 54.4075 19.2775L54.5075 20.34L54.695 22.615C54.87 24.9725 55 27.5425 55 30C55 32.4575 54.87 35.0275 54.695 37.385L54.5075 39.66C54.475 40.025 54.4425 40.3775 54.4075 40.7225C54.191 42.949 53.1961 45.0279 51.5979 46.5932C49.9997 48.1584 47.9006 49.1099 45.67 49.28L43.62 49.4375L41.37 49.5925L38.965 49.735L36.455 49.855C34.3046 49.9484 32.1524 49.9968 30 50C27.8476 49.9968 25.6954 49.9484 23.545 49.855L21.035 49.735L18.6325 49.5925L16.3825 49.4375L14.3275 49.28C12.0974 49.1093 9.99888 48.1576 8.40118 46.5924C6.80348 45.0272 5.80894 42.9486 5.5925 40.7225L5.4925 39.66L5.305 37.385C5.11384 34.9278 5.01211 32.4645 5 30C5 27.5425 5.13 24.9725 5.305 22.615L5.4925 20.34C5.525 19.975 5.5575 19.6225 5.5925 19.2775C5.80885 17.0517 6.80304 14.9735 8.40023 13.4084C9.99742 11.8432 12.0953 10.8913 14.325 10.72L16.3775 10.56L18.6275 10.4075L21.0325 10.265L23.5425 10.145C25.6938 10.0516 27.8467 10.0032 30 10ZM25 23.9375V36.0625C25 37.2175 26.25 37.9375 27.25 37.3625L37.75 31.3C37.9785 31.1685 38.1683 30.9791 38.3002 30.7508C38.4322 30.5226 38.5017 30.2636 38.5017 30C38.5017 29.7364 38.4322 29.4774 38.3002 29.2492C38.1683 29.0209 37.9785 28.8315 37.75 28.7L27.25 22.64C27.0219 22.5083 26.7631 22.439 26.4998 22.439C26.2364 22.4391 25.9776 22.5085 25.7496 22.6402C25.5215 22.772 25.3322 22.9615 25.2006 23.1897C25.069 23.4178 24.9998 23.6766 25 23.94V23.9375Z" fill="white"/>
</g>
<defs>
<clipPath id="clip0_196_18">
<rect width="60" height="60" fill="white"/>
</clipPath>
</defs>
</svg>
